<svg height="512pt" viewBox="-41 0 512 512" width="512pt" xmlns="http://www.w3.org/2000/svg"><path d="m366.90625 63.011719c-40.585938-40.632813-94.546875-63.011719-151.941406-63.011719-57.398438 0-111.359375 22.378906-151.945313 63.011719-40.585937 40.636719-63.019531 94.664062-63.019531 152.128906 0 50.25 17.703125 99.152344 49.703125 137.699219v.003906c8 9.804688 17.34375 18.933594 27.109375 27.144531l127.5 127.613281c2.929688 2.929688 6.789062 4.398438 10.628906 4.398438s7.6875-1.46875 10.617188-4.398438l127.464844-127.613281c9.765624-8.210937 18.859374-17.339843 27.027343-27.148437 32.105469-38.546875 49.789063-87.449219 49.789063-137.699219 0-57.464844-22.347656-111.492187-62.933594-152.128906zm0 0" fill="#a1c5ff"/><path d="m366.90625 63.011719c-40.585938-40.632813-94.546875-63.011719-151.941406-63.011719l-.023438 512c3.839844 0 7.6875-1.46875 10.617188-4.398438l127.464844-127.613281c9.769531-8.210937 18.863281-17.339843 27.03125-27.148437 32.105468-38.546875 49.789062-87.449219 49.789062-137.699219-.003906-57.464844-22.351562-111.492187-62.9375-152.128906zm0 0" fill="#5a8cdb"/><path d="m261.921875 165.578125h-53.277344c-8.28125 0-14.9375 7.019531-14.9375 15.3125v92.988281c0 8.296875 6.714844 15.019532 15 15.019532 8.28125 0 15-6.722657 15-15.019532v-31.207031h38.21875c21.070313 0 38.21875-17.445313 38.21875-38.546875-.003906-21.097656-17.148437-38.546875-38.222656-38.546875zm0 47.058594h-38.21875v-17.019531h38.21875c4.53125 0 8.21875 3.972656 8.21875 8.507812 0 4.539062-3.6875 8.511719-8.21875 8.511719zm0 0" fill="#f5f5f5"/><path d="m261.921875 165.578125h-46.980469l.007813 121.960937c5.167969-2.371093 8.753906-7.597656 8.753906-13.65625v-31.207031h38.21875c21.074219 0 38.21875-17.449219 38.21875-38.546875 0-21.101562-17.144531-38.550781-38.21875-38.550781zm0 47.058594h-38.21875v-17.019531h38.21875c4.53125 0 8.21875 3.972656 8.21875 8.507812 0 4.539062-3.6875 8.511719-8.21875 8.511719zm0 0" fill="#afc3c9"/><path d="m164.703125 165.875c-8.28125 0-15 6.722656-15 15.015625v92.988281c0 8.296875 6.71875 15.019532 15 15.019532 8.285156 0 15-6.722657 15-15.019532v-92.988281c0-8.292969-6.714844-15.015625-15-15.015625zm0 0" fill="#f5f5f5"/></svg>